:SAMPLES-PER-SECOND 30
:FULLY-SPECIFIED
:DEGREES
403
root  -34.8648 39.3514 1.61038 -171.658 -85.0412 -172.752
RightUpLeg  -37.9546 -5.54227 0.272268
RightLeg  29.8787 -7.43849 -4.83227
RightFoot  -4.03691 -0.0617135 0.536737
RightToes  5.82063e-011 0 -3.6325e-017
Spine  68.2409 -5.43582 8.32093
Spine1  6.05423 3.31585 -9.25349
HEad  -42.049 -7.35237 -1.68223
LeftShoulder1  5.63807 -27.4843 -10.8345
LeftArm  -80.0708 -69.3361 26.3848
LeftForeArm  -9.50521 -7.74875 0.187269
LeftHand  -0.244104 0.0205437 5.32207
RightShoulder  1.99024 12.3116 4.74261
RightArm  -72.5594 69.7635 -19.5257
RightForeArm  -33.0974 7.39501 5.0172
RightHand  -1.8061 9.39269 -14.4514
LeftUpLeg  -42.8177 24.3224 -16.8268
LeftLeg  20.1674 -3.46049 -1.07546
LeftFoot  3.93728 -1.66492 12.1843
LeftToes  1.45487e-011 -6.19069e-011 1.65092e-011
404
root  -34.8266 39.3963 1.60038 -174.001 -84.792 -171.417
RightUpLeg  -36.6689 -5.48103 0.360358
RightLeg  29.3629 -7.22113 -4.6089
RightFoot  -3.90466 -0.0477138 0.313905
RightToes  5.82063e-011 0 -3.6325e-017
Spine  67.3434 -6.2553 8.08665
Spine1  8.05571 2.58741 -10.0896
HEad  -43.0022 -5.986 -1.93894
LeftShoulder1  6.63105 -26.6082 -15.0066
LeftArm  -79.0102 -68.505 30.4331
LeftForeArm  -8.68394 -7.80866 -1.39243
LeftHand  -0.244104 0.0205437 5.32207
RightShoulder  2.00181 12.2794 4.85188
RightArm  -69.7341 71.6565 -16.7277
RightForeArm  -30.8923 7.42352 5.49966
RightHand  -2.34056 9.93755 -17.9304
LeftUpLeg  -41.799 25.1743 -16.433
LeftLeg  20.0741 -3.7579 -1.18919
LeftFoot  4.071 -1.67967 12.1793
LeftToes  1.45487e-011 -6.19069e-011 1.65092e-011
405
root  -34.7718 39.4587 1.55641 -176.017 -84.5446 -170.624
RightUpLeg  -35.2122 -5.61179 0.499024
RightLeg  28.8605 -6.86263 -4.31092
RightFoot  -3.61523 -0.0320062 0.0658402
RightToes  5.82063e-011 0 -3.6325e-017
Spine  67.0213 -6.20168 8.07362
Spine1  8.28206 2.44452 -9.4468
HEad  -42.6133 -5.80767 -3.02343
LeftShoulder1  8.11222 -26.3318 -20.5744
LeftArm  -72.5357 -68.6429 26.5013
LeftForeArm  -3.82427 -9.03659 -2.86181
LeftHand  -0.244104 0.0205437 5.32207
RightShoulder  2.1938 12.4954 6.00323
RightArm  -58.8533 72.2366 -7.97671
RightForeArm  -26.2896 7.35057 6.50381
RightHand  -2.76688 10.4022 -20.4938
LeftUpLeg  -40.4332 25.9878 -15.8386
LeftLeg  19.8387 -3.94125 -1.24415
LeftFoot  4.31205 -1.71266 12.2182
LeftToes  1.45487e-011 -6.19069e-011 1.65092e-011
406
root  -34.705 39.5374 1.47474 -177.84 -84.2997 -170.206
RightUpLeg  -33.4486 -6.08238 0.760806
RightLeg  28.1266 -6.29105 -3.86468
RightFoot  -3.42851 -0.0102777 -0.272722
RightToes  5.82063e-011 0 -3.6325e-017
Spine  67.1017 -5.70032 8.06572
Spine1  7.64735 2.56682 -8.2331
HEad  -41.7386 -6.01126 -4.19802
LeftShoulder1  8.68983 -25.4714 -23.5528
LeftArm  -60.1503 -68.7989 12.6159
LeftForeArm  4.29679 -10.9305 -3.43395
LeftHand  -0.244104 0.0205437 5.32207
RightShoulder  2.56332 12.4845 8.62625
RightArm  -43.8025 71.9019 3.44981
RightForeArm  -19.9062 7.04978 7.84462
RightHand  -2.75307 9.96019 -20.9331
LeftUpLeg  -38.667 26.5699 -14.9028
LeftLeg  19.3852 -3.88366 -1.18834
LeftFoot  4.50033 -1.67819 11.8194
LeftToes  1.45487e-011 -6.19069e-011 1.65092e-011
407
root  -34.6285 39.6187 1.35883 -179.466 -84.0414 -170.148
RightUpLeg  -31.3171 -6.91942 1.13947
RightLeg  27.0441 -5.49399 -3.26838
RightFoot  -3.4792 0.0312204 -0.913739
RightToes  5.82063e-011 0 -3.6325e-017
Spine  66.3338 -5.49162 7.59118
Spine1  9.36394 2.22409 -7.51667
HEad  -42.398 -5.05278 -4.89486
LeftShoulder1  8.09095 -23.3365 -23.7673
LeftArm  -49.1348 -67.5975 0.199697
LeftForeArm  9.90388 -12.2503 -3.65946
LeftHand  -0.244104 0.0205437 5.32207
RightShoulder  2.75415 12.1497 10.345
RightArm  -30.9129 71.7453 15.1943
RightForeArm  -13.6565 6.64654 8.61771
RightHand  -2.31516 8.63544 -19.3021
LeftUpLeg  -36.5223 26.8825 -13.6479
LeftLeg  18.7445 -3.52389 -1.04692
LeftFoot  4.59296 -1.5842 11.0811
LeftToes  1.45487e-011 -6.19069e-011 1.65092e-011
